<svg xmlns="http://www.w3.org/2000/svg" width="654.398" height="80.435" viewBox="0 0 654.398 80.435">
  <defs>
    <style>
      .cls-1 {
        fill: none;
        stroke: #cad6d3;
        stroke-width: 2px;
      }
    </style>
  </defs>
  <path id="Bookademic_Title" data-name="Bookademic Title" class="cls-1" d="M-3354.367,98.9a26.414,26.414,0,0,1-10.133-9.975,28.507,28.507,0,0,1-3.675-14.542A28.433,28.433,0,0,1-3364.5,59.79a26.15,26.15,0,0,1,10.133-9.87,29.758,29.758,0,0,1,14.647-3.57,28.911,28.911,0,0,1,12.706,2.73,20.587,20.587,0,0,1,8.925,8.189l-5.565,3.78a17.484,17.484,0,0,0-7.035-6.194,21.013,21.013,0,0,0-9.135-2,21.129,21.129,0,0,0-10.605,2.678,19.457,19.457,0,0,0-7.455,7.507,22.674,22.674,0,0,0-2.73,11.341,22.67,22.67,0,0,0,2.73,11.34,19.459,19.459,0,0,0,7.455,7.508,21.138,21.138,0,0,0,10.605,2.677,21.012,21.012,0,0,0,9.135-1.995,17.749,17.749,0,0,0,7.035-6.09l5.565,3.779a21.122,21.122,0,0,1-8.925,8.138,28.467,28.467,0,0,1-12.706,2.782A29.415,29.415,0,0,1-3354.367,98.9Zm-203.018,0a26.31,26.31,0,0,1-10.185-9.975,28.5,28.5,0,0,1-3.675-14.542,29.226,29.226,0,0,1,3.517-14.49,26.055,26.055,0,0,1,9.66-9.923,26.674,26.674,0,0,1,13.808-3.622,26.916,26.916,0,0,1,13.808,3.517,25.057,25.057,0,0,1,9.5,9.87,30.1,30.1,0,0,1,3.465,14.648q0,.525-.052,1.1t-.053,1.208h-46.337a20.859,20.859,0,0,0,2.71,9.083,19.44,19.44,0,0,0,7.77,7.455,23.714,23.714,0,0,0,11.393,2.677,24.56,24.56,0,0,0,9.4-1.785,19.538,19.538,0,0,0,7.508-5.46l4.2,4.829a23.655,23.655,0,0,1-9.187,6.721,31.084,31.084,0,0,1-12.128,2.31A30.583,30.583,0,0,1-3557.385,98.9Zm32.774-27.772a20.965,20.965,0,0,0-2.482-8.452,18.923,18.923,0,0,0-6.982-7.3,19.525,19.525,0,0,0-10.185-2.625,19.881,19.881,0,0,0-10.185,2.625,18.245,18.245,0,0,0-7.035,7.349,21.694,21.694,0,0,0-2.416,8.4Zm-104.437,27.825a25.719,25.719,0,0,1-9.817-9.922,29.386,29.386,0,0,1-3.57-14.648,29.309,29.309,0,0,1,3.57-14.7,25.448,25.448,0,0,1,9.817-9.817,28.276,28.276,0,0,1,14.123-3.517,25.762,25.762,0,0,1,12.968,3.255,23.175,23.175,0,0,1,8.032,7.653V24.09h7.455V102h-7.14V91.078a23.223,23.223,0,0,1-8.242,8.14,25.646,25.646,0,0,1-13.073,3.307A27.949,27.949,0,0,1-3629.047,98.955Zm-3.1-13.283a19.588,19.588,0,0,0,7.35,7.56,20.354,20.354,0,0,0,10.4,2.677,20.848,20.848,0,0,0,10.552-2.677,19.1,19.1,0,0,0,7.349-7.56,23.093,23.093,0,0,0,2.678-11.287,23.02,23.02,0,0,0-2.678-11.341,19.191,19.191,0,0,0-7.349-7.507A20.839,20.839,0,0,0-3614.4,52.86a20.345,20.345,0,0,0-10.4,2.678,19.683,19.683,0,0,0-7.35,7.507,22.664,22.664,0,0,0-2.73,11.341A22.736,22.736,0,0,0-3632.145,85.672Zm-61.9,14.805a15.98,15.98,0,0,1-6.981-5.669,14.7,14.7,0,0,1-2.415-8.348,15.262,15.262,0,0,1,2.048-7.823,14.411,14.411,0,0,1,6.719-5.67q4.672-2.152,12.547-2.152h17.535V67.455q0-7.035-3.938-10.815t-11.707-3.78a29.154,29.154,0,0,0-10.185,1.785,25.941,25.941,0,0,0-8.19,4.725l-3.36-5.565a29.786,29.786,0,0,1,10.08-5.513,39.259,39.259,0,0,1,12.39-1.942q10.71,0,16.538,5.3t5.827,16.118V102h-7.14V93.352a17.859,17.859,0,0,1-5.932,5.918q-5.2,3.255-13.073,3.255A26.13,26.13,0,0,1-3694.043,100.477Zm1.628-6.668q3.675,2.835,10.29,2.836a19.912,19.912,0,0,0,10.867-2.887,16.587,16.587,0,0,0,6.668-8.348V76.38h-17.325q-7.979,0-11.078,2.835a9.154,9.154,0,0,0-3.1,7.035A9.066,9.066,0,0,0-3692.415,93.81ZM-3818.573,98.9a26.628,26.628,0,0,1-10.027-9.975,28.5,28.5,0,0,1-3.675-14.542A28.431,28.431,0,0,1-3828.6,59.79a26.464,26.464,0,0,1,9.975-9.87,28.664,28.664,0,0,1,14.386-3.57,29.164,29.164,0,0,1,14.542,3.57,25.974,25.974,0,0,1,9.976,9.87,28.764,28.764,0,0,1,3.622,14.595,28.838,28.838,0,0,1-3.622,14.542A26.144,26.144,0,0,1-3789.75,98.9a28.916,28.916,0,0,1-14.49,3.623A28.414,28.414,0,0,1-3818.573,98.9Zm-3.413-13.23a19.588,19.588,0,0,0,7.35,7.56,20.354,20.354,0,0,0,10.4,2.677,20.765,20.765,0,0,0,10.6-2.677,19.216,19.216,0,0,0,7.3-7.56,23.1,23.1,0,0,0,2.677-11.287,23.03,23.03,0,0,0-2.677-11.341,19.3,19.3,0,0,0-7.3-7.507,20.549,20.549,0,0,0-10.5-2.678,20.549,20.549,0,0,0-10.5,2.678,19.683,19.683,0,0,0-7.35,7.507,22.674,22.674,0,0,0-2.73,11.341A22.746,22.746,0,0,0-3821.985,85.672Zm-62.422,13.23a26.624,26.624,0,0,1-10.028-9.975,28.5,28.5,0,0,1-3.676-14.542,28.431,28.431,0,0,1,3.676-14.595,26.466,26.466,0,0,1,9.975-9.87,28.66,28.66,0,0,1,14.385-3.57,29.17,29.17,0,0,1,14.543,3.57,25.98,25.98,0,0,1,9.975,9.87,28.757,28.757,0,0,1,3.623,14.595,28.831,28.831,0,0,1-3.623,14.542,26.138,26.138,0,0,1-10.028,9.975,28.913,28.913,0,0,1-14.49,3.623A28.41,28.41,0,0,1-3884.407,98.9Zm-3.413-13.23a19.577,19.577,0,0,0,7.349,7.56,20.357,20.357,0,0,0,10.4,2.677,20.767,20.767,0,0,0,10.605-2.677,19.222,19.222,0,0,0,7.3-7.56,23.1,23.1,0,0,0,2.677-11.287,23.03,23.03,0,0,0-2.677-11.341,19.31,19.31,0,0,0-7.3-7.507,20.55,20.55,0,0,0-10.5-2.678,20.553,20.553,0,0,0-10.5,2.678,19.671,19.671,0,0,0-7.349,7.507,22.661,22.661,0,0,0-2.73,11.341A22.734,22.734,0,0,0-3887.82,85.672ZM-3390.855,102V46.875h7.456V102Zm-27.72,0V70.71q0-8.715-4.147-13.177t-11.707-4.463a19.521,19.521,0,0,0-9.818,2.362,15.911,15.911,0,0,0-6.4,6.825,23.62,23.62,0,0,0-2.258,10.763V102h-7.455V70.71q0-8.715-4.2-13.177t-11.76-4.463a19.589,19.589,0,0,0-9.764,2.362,15.811,15.811,0,0,0-6.458,6.825A23.607,23.607,0,0,0-3494.8,73.02V102h-7.455V46.875h7.14v9.954a19.709,19.709,0,0,1,6.983-7.066,25.079,25.079,0,0,1,13.283-3.413,23.075,23.075,0,0,1,13.755,4.042,17.382,17.382,0,0,1,5.957,7.581,22.048,22.048,0,0,1,7.01-7.476,25.738,25.738,0,0,1,14.752-4.147,25.209,25.209,0,0,1,11.708,2.573,18.037,18.037,0,0,1,7.77,7.823q2.783,5.249,2.782,13.23V102Zm-299.565,0-22.269-27.759-13.01,12.024V102h-7.455V24.09h7.455v52.83l32.97-30.045h9.135l-23.537,22.518L-3709,102Zm-252,0V28.5h31.711q12.284,0,19.057,4.935T-3912.6,47.4a17.517,17.517,0,0,1-2.782,10.079,17.36,17.36,0,0,1-7.561,6.2q-.434.191-.875.364a25.032,25.032,0,0,1,4.341,1.368,17.391,17.391,0,0,1,7.927,6.4,18.61,18.61,0,0,1,2.836,10.553q0,9.344-6.878,14.489T-3936.33,102Zm33.705-6.4q9.66,0,14.805-3.308t5.144-10.553q0-7.14-5.144-10.447t-14.805-3.308h-25.936V95.6Zm-2.521-34.02q8.821,0,13.7-3.36t4.882-9.975q0-6.721-4.882-10.028t-13.7-3.308h-23.415v26.67Zm548-28.454a5.157,5.157,0,0,1-1.575-3.78,4.982,4.982,0,0,1,1.575-3.727,5.372,5.372,0,0,1,3.885-1.522,5.476,5.476,0,0,1,3.885,1.47,4.819,4.819,0,0,1,1.575,3.675,5.374,5.374,0,0,1-1.522,3.886,5.236,5.236,0,0,1-3.937,1.574A5.281,5.281,0,0,1-3390.96,33.12Z" transform="translate(3971.14 -23.09)"/>
</svg>
