<svg xmlns="http://www.w3.org/2000/svg" width="491.86" height="106.58" viewBox="0 0 491.86 106.58">
  <defs>
    <style>
      .cls-1 {
        fill: none;
        stroke: #cad6d3;
        stroke-width: 2px;
      }
    </style>
  </defs>
  <path id="Deliber_Title" data-name="Deliber Title" class="cls-1" d="M395.79,131.87a35.086,35.086,0,0,1-13.58-13.3,38.008,38.008,0,0,1-4.9-19.39A38.964,38.964,0,0,1,382,79.86,34.732,34.732,0,0,1,394.88,66.63a37.985,37.985,0,0,1,36.82-.139A33.394,33.394,0,0,1,444.37,79.65a40.125,40.125,0,0,1,4.621,19.53q0,.7-.07,1.47t-.07,1.61H387.067a27.812,27.812,0,0,0,3.613,12.11,25.916,25.916,0,0,0,10.36,9.94,31.605,31.605,0,0,0,15.19,3.57,32.732,32.732,0,0,0,12.53-2.381,26.034,26.034,0,0,0,10.01-7.279l5.6,6.439a31.527,31.527,0,0,1-12.25,8.96,41.435,41.435,0,0,1-16.169,3.08A40.775,40.775,0,0,1,395.79,131.87Zm43.7-37.03a27.948,27.948,0,0,0-3.309-11.27,25.241,25.241,0,0,0-9.31-9.731,26.046,26.046,0,0,0-13.58-3.5,26.522,26.522,0,0,0-13.58,3.5,24.341,24.341,0,0,0-9.38,9.8,28.918,28.918,0,0,0-3.221,11.2Zm-129.1,37.45a30.865,30.865,0,0,1-11.06-10.853V136h-9.52V32.12h9.94V76.348A30.827,30.827,0,0,1,310.53,66.14,34.456,34.456,0,0,1,327.75,61.8a37.712,37.712,0,0,1,18.83,4.69,33.931,33.931,0,0,1,13.09,13.09,39.081,39.081,0,0,1,4.76,19.6,39.181,39.181,0,0,1-4.76,19.53,34.293,34.293,0,0,1-13.09,13.23,37.272,37.272,0,0,1-18.83,4.76A34.294,34.294,0,0,1,310.39,132.29Zm-7.21-18.06a25.465,25.465,0,0,0,9.8,10.08,27.778,27.778,0,0,0,14.07,3.57,27.4,27.4,0,0,0,14-3.57,26.1,26.1,0,0,0,9.8-10.08,30.312,30.312,0,0,0,3.641-15.05,30.21,30.21,0,0,0-3.641-15.12,26.234,26.234,0,0,0-9.8-10.01,27.4,27.4,0,0,0-14-3.57,27.778,27.778,0,0,0-14.07,3.57,25.587,25.587,0,0,0-9.8,10.01,30.687,30.687,0,0,0-3.57,15.12A30.79,30.79,0,0,0,303.18,114.23ZM140.99,131.87a35.086,35.086,0,0,1-13.58-13.3,38.008,38.008,0,0,1-4.9-19.39,38.964,38.964,0,0,1,4.69-19.32,34.736,34.736,0,0,1,12.88-13.23A37.986,37.986,0,0,1,176.9,66.49,33.394,33.394,0,0,1,189.57,79.65a40.125,40.125,0,0,1,4.621,19.53q0,.7-.07,1.47t-.07,1.61H132.267a27.812,27.812,0,0,0,3.613,12.11,25.916,25.916,0,0,0,10.36,9.94,31.605,31.605,0,0,0,15.19,3.57,32.735,32.735,0,0,0,12.53-2.381,26.034,26.034,0,0,0,10.01-7.279l5.6,6.439a31.527,31.527,0,0,1-12.25,8.96,41.435,41.435,0,0,1-16.169,3.08A40.775,40.775,0,0,1,140.99,131.87Zm43.7-37.03a27.944,27.944,0,0,0-3.309-11.27,25.247,25.247,0,0,0-9.31-9.731,26.045,26.045,0,0,0-13.58-3.5,26.522,26.522,0,0,0-13.58,3.5,24.341,24.341,0,0,0-9.38,9.8,28.918,28.918,0,0,0-3.221,11.2ZM469.29,136V62.5h9.52V76.671a23.837,23.837,0,0,1,9.38-10.461q7.281-4.41,18.06-4.41v9.66a8.979,8.979,0,0,1-1.12-.07,9,9,0,0,0-1.12-.07q-11.619,0-18.2,7.07t-6.58,20.09V136ZM252.15,136V62.5h9.94V136Zm-37.66,0V32.12h9.94V136Zm-198.1,0V38h39.9q15.68,0,27.51,6.23A45.713,45.713,0,0,1,102.21,61.52,48.874,48.874,0,0,1,108.79,87a48.878,48.878,0,0,1-6.58,25.48A45.717,45.717,0,0,1,83.8,129.77Q71.97,136,56.29,136Zm39.34-8.96q13.021,0,22.61-5.11a37.228,37.228,0,0,0,14.91-14.14A40.182,40.182,0,0,0,98.57,87a40.083,40.083,0,0,0-5.32-20.86A37.379,37.379,0,0,0,78.34,52.07q-9.589-5.111-22.61-5.11H26.75v80.08ZM252.01,44.16a6.877,6.877,0,0,1-2.1-5.04,6.649,6.649,0,0,1,2.1-4.971,7.168,7.168,0,0,1,5.18-2.029,7.3,7.3,0,0,1,5.18,1.96,6.422,6.422,0,0,1,2.1,4.9,7.165,7.165,0,0,1-2.03,5.18,7.526,7.526,0,0,1-10.43,0Z" transform="translate(-15.39 -31.12)"/>
</svg>
