<svg xmlns="http://www.w3.org/2000/svg" width="502.839" height="128.7" viewBox="0 0 502.839 128.7">
  <defs>
    <style>
      .cls-1 {
        fill: none;
        stroke: #cad6d3;
        stroke-width: 2px;
      }
    </style>
  </defs>
  <path id="Smarty_Title" data-name="Smarty Title" class="cls-1" d="M-1555.93,162.18a21.426,21.426,0,0,1-8.05-5.04l4.62-7.42a21.622,21.622,0,0,0,6.089,4.129,17.826,17.826,0,0,0,7.35,1.471,13.534,13.534,0,0,0,8.47-2.731q3.571-2.73,6.79-9.589l3.174-7.188L-1560.34,62.5h10.36l27.734,62.467L-1494.54,62.5h9.8l-36.82,82.32a42.572,42.572,0,0,1-6.791,11.34,21.609,21.609,0,0,1-8.05,5.95,25.607,25.607,0,0,1-9.66,1.751A29.057,29.057,0,0,1-1555.93,162.18Zm-413.42-28.91q-10.009-3.571-15.469-9.17l4.06-7.98a41.336,41.336,0,0,0,13.929,8.47,49.989,49.989,0,0,0,18.41,3.43q9.239,0,15.05-2.309a18.231,18.231,0,0,0,8.54-6.23,14.854,14.854,0,0,0,2.73-8.68,12.943,12.943,0,0,0-3.29-9.24,22.689,22.689,0,0,0-8.61-5.53,95.032,95.032,0,0,0-11.76-3.57q-6.439-1.539-12.88-3.289a54.45,54.45,0,0,1-11.83-4.69,24.512,24.512,0,0,1-8.68-7.771q-3.29-4.829-3.29-12.669a24.526,24.526,0,0,1,3.85-13.37q3.85-6.09,11.83-9.8t20.44-3.71a59.558,59.558,0,0,1,16.38,2.31,47.171,47.171,0,0,1,14,6.369l-3.5,8.26a46.28,46.28,0,0,0-13.37-6.16,51.021,51.021,0,0,0-13.649-1.96q-8.821,0-14.56,2.38a18.448,18.448,0,0,0-8.47,6.37,15.619,15.619,0,0,0-2.73,9.03,12.942,12.942,0,0,0,3.29,9.24,21.968,21.968,0,0,0,8.68,5.46,108.65,108.65,0,0,0,11.831,3.5q6.439,1.539,12.81,3.36a60.015,60.015,0,0,1,11.76,4.69,24.141,24.141,0,0,1,8.68,7.63q3.29,4.76,3.29,12.46a23.972,23.972,0,0,1-3.92,13.23q-3.919,6.09-11.97,9.8t-20.65,3.71A61.849,61.849,0,0,1-1969.35,133.27Zm374.57-2.17q-5.6-5.6-5.6-15.82V70.76h-13.16V62.5h13.16V46.26h9.94V62.5h22.4v8.26h-22.4V114.72q0,6.439,3.29,9.94t9.45,3.5a16.025,16.025,0,0,0,10.92-3.78l3.5,7.14a18.346,18.346,0,0,1-7.069,3.92,28.883,28.883,0,0,1-8.47,1.26Q-1589.18,136.7-1594.78,131.1Zm-141.75,2.87a21.319,21.319,0,0,1-9.31-7.56,19.6,19.6,0,0,1-3.22-11.13,20.354,20.354,0,0,1,2.73-10.43,19.224,19.224,0,0,1,8.96-7.56q6.23-2.87,16.73-2.87h23.38V89.94q0-9.38-5.251-14.42t-15.61-5.04a38.857,38.857,0,0,0-13.58,2.381,34.588,34.588,0,0,0-10.92,6.3l-4.48-7.421a39.734,39.734,0,0,1,13.44-7.35,52.34,52.34,0,0,1,16.52-2.589q14.279,0,22.05,7.07t7.77,21.49V136h-9.52V124.468a23.813,23.813,0,0,1-7.91,7.892q-6.929,4.339-17.429,4.34A34.841,34.841,0,0,1-1736.53,133.97Zm2.17-8.89q4.9,3.78,13.72,3.78a26.547,26.547,0,0,0,14.49-3.85,22.119,22.119,0,0,0,8.89-11.13V101.84h-23.1q-10.641,0-14.77,3.78a12.2,12.2,0,0,0-4.13,9.38A12.092,12.092,0,0,0-1734.36,125.08ZM-1660.3,136V62.5h9.52V76.671a23.837,23.837,0,0,1,9.38-10.461q7.281-4.41,18.06-4.41v9.66a8.981,8.981,0,0,1-1.12-.07,9,9,0,0,0-1.12-.07q-11.619,0-18.2,7.07t-6.58,20.09V136Zm-119.56,0V94.28q0-11.621-5.531-17.571T-1801,70.76a26.012,26.012,0,0,0-13.09,3.15,21.21,21.21,0,0,0-8.54,9.1,31.487,31.487,0,0,0-3.01,14.35V136h-9.94V94.28q0-11.621-5.6-17.571t-15.681-5.95a26.111,26.111,0,0,0-13.019,3.15,21.1,21.1,0,0,0-8.61,9.1,31.487,31.487,0,0,0-3.01,14.35V136h-9.94V62.5h9.52V75.772a26.289,26.289,0,0,1,9.31-9.422A33.454,33.454,0,0,1-1854.9,61.8q10.78,0,18.34,5.39a23.173,23.173,0,0,1,7.943,10.107,29.4,29.4,0,0,1,9.346-9.967q8.19-5.53,19.67-5.53a33.615,33.615,0,0,1,15.609,3.43,24.048,24.048,0,0,1,10.36,10.43q3.71,7,3.71,17.64V136Z" transform="translate(1986.036 -36.16)"/>
</svg>
